<svg xmlns="http://www.w3.org/2000/svg" class="ionicon" viewBox="0 0 512 512"><path d="M208 368v104a23.73 23.73 0 0 0 24 24 23.73 23.73 0 0 0 24-24" class="ionicon-fill-none ionicon-stroke-width"/><path d="M256 368v104a23.73 23.73 0 0 0 24 24 23.73 23.73 0 0 0 24-24V368m-121-94a23.73 23.73 0 0 1-29.84 16.18 23.72 23.72 0 0 1-16.17-29.84l25-84.28A44.85 44.85 0 0 1 205 144h102a44.85 44.85 0 0 1 43 32.08l25 84.28a23.72 23.72 0 0 1-16.17 29.84 23.73 23.73 0 0 1-29.78-16.2" class="ionicon-fill-none ionicon-stroke-width"/><circle cx="256" cy="56" r="40" class="ionicon-fill-none ionicon-stroke-width"/><path d="m208 192-48 160h192l-48-160" class="ionicon-fill-none ionicon-stroke-width"/></svg>